<svg width="21" height="15" viewBox="0 0 21 15" fill="none" xmlns="http://www.w3.org/2000/svg">
<g clip-path="url(#clip0_104_4001)">
<path d="M0.501465 0.548828H23.5035V14.5488H0.501465V0.548828Z" fill="white"/>
<path d="M0.501465 0.548828H23.5035V1.49508H0.501465V0.548828ZM0.501465 2.44133H23.5035V3.38757H0.501465V2.44133ZM0.501465 4.33375H23.5035V5.27999H0.501465V4.33375ZM0.501465 6.22624H23.5035V7.17249H0.501465V6.22624ZM0.501465 8.11866H23.5035V9.06491H0.501465V8.11866ZM0.501465 10.0112H23.5035V10.9574H0.501465V10.0112ZM0.501465 11.9036H23.5035V12.8498H0.501465V11.9036Z" fill="#B22234"/>
<path d="M0.533325 13.6284H23.5354V14.5747H0.533325V13.6284ZM0.533325 15.5209H23.5354V16.4672H0.533325V15.5209ZM0.533325 17.4133H23.5354V18.3596H0.533325V17.4133ZM0.533325 19.3058H23.5354V20.2521H0.533325V19.3058ZM0.533325 21.1983H23.5354V22.1445H0.533325V21.1983ZM0.533325 23.0908H23.5354V24.037H0.533325V23.0908ZM0.533325 24.9832H23.5354V25.9294H0.533325V24.9832Z" fill="#B22234"/>
<path d="M0.501465 0.548828H9.70229V7.17241H0.501465V0.548828Z" fill="#3C3B6E"/>
<path d="M0.933716 1.08647L1.15293 1.24828L1.0692 1.51013L1.28833 1.34831L1.50754 1.51013L1.42381 1.24828L1.64295 1.08647H1.37206L1.28833 0.824707L1.2046 1.08647H0.933716ZM2.45914 1.08647L2.67827 1.24828L2.59454 1.51013L2.81375 1.34831L3.03296 1.51013L2.94923 1.24828L3.16837 1.08647H2.89748L2.81375 0.824707L2.73002 1.08647H2.45914ZM3.98456 1.08647L4.20369 1.24828L4.11996 1.51013L4.33917 1.34831L4.5583 1.51013L4.47458 1.24828L4.69379 1.08647H4.4229L4.33917 0.824707L4.25544 1.08647H3.98456ZM5.50998 1.08647L5.72911 1.24828L5.64538 1.51013L5.86459 1.34831L6.08372 1.51013L6 1.24828L6.21921 1.08647H5.94824L5.86459 0.824707L5.78086 1.08647H5.50998ZM7.03532 1.08647L7.25453 1.24828L7.1708 1.51013L7.38993 1.34831L7.60914 1.51013L7.52542 1.24828L7.74455 1.08647H7.47366L7.38993 0.824707L7.30621 1.08647H7.03532ZM8.56074 1.08647L8.77987 1.24828L8.69614 1.51013L8.91535 1.34831L9.13449 1.51013L9.05076 1.24828L9.26997 1.08647H8.99908L8.91535 0.824707L8.83163 1.08647H8.56074ZM1.69639 1.75078L1.9156 1.91259L1.83187 2.17435L2.05108 2.01254L2.27021 2.17435L2.18648 1.91259L2.40569 1.75078H2.13473L2.05108 1.48894L1.96735 1.75078H1.69639ZM3.22181 1.75078L3.44102 1.91259L3.35729 2.17435L3.57642 2.01254L3.79563 2.17435L3.7119 1.91259L3.93104 1.75078H3.66015L3.57642 1.48894L3.4927 1.75078H3.22181ZM4.74723 1.75078L4.96644 1.91259L4.88271 2.17435L5.10184 2.01254L5.32105 2.17435L5.23732 1.91259L5.45646 1.75078H5.18557L5.10184 1.48894L5.01812 1.75078H4.74723ZM6.27265 1.75078L6.49178 1.91259L6.40805 2.17435L6.62726 2.01254L6.8464 2.17435L6.76267 1.91259L6.98188 1.75078H6.71099L6.62726 1.48894L6.54354 1.75078H6.27265ZM7.79799 1.75078L8.0172 1.91259L7.93347 2.17435L8.15261 2.01254L8.37182 2.17435L8.28809 1.91259L8.50722 1.75078H8.23633L8.15261 1.48894L8.06895 1.75078H7.79799ZM0.933716 2.41501L1.15293 2.57682L1.0692 2.83866L1.28833 2.67685L1.50754 2.83866L1.42381 2.57682L1.64295 2.41501H1.37206L1.28833 2.15324L1.2046 2.41501H0.933716ZM2.45914 2.41501L2.67827 2.57682L2.59454 2.83866L2.81375 2.67685L3.03296 2.83866L2.94923 2.57682L3.16837 2.41501H2.89748L2.81375 2.15324L2.73002 2.41501H2.45914ZM3.98456 2.41501L4.20369 2.57682L4.11996 2.83866L4.33917 2.67685L4.5583 2.83866L4.47458 2.57682L4.69379 2.41501H4.4229L4.33917 2.15324L4.25544 2.41501H3.98456ZM5.50998 2.41501L5.72911 2.57682L5.64538 2.83866L5.86459 2.67685L6.08372 2.83866L6 2.57682L6.21921 2.41501H5.94824L5.86459 2.15324L5.78086 2.41501H5.50998ZM7.03532 2.41501L7.25453 2.57682L7.1708 2.83866L7.38993 2.67685L7.60914 2.83866L7.52542 2.57682L7.74455 2.41501H7.47366L7.38993 2.15324L7.30621 2.41501H7.03532ZM8.56074 2.41501L8.77987 2.57682L8.69614 2.83866L8.91535 2.67685L9.13449 2.83866L9.05076 2.57682L9.26997 2.41501H8.99908L8.91535 2.15324L8.83163 2.41501H8.56074ZM1.71525 3.08149L1.93438 3.24331L1.85073 3.50507L2.06986 3.34326L2.28907 3.50507L2.20535 3.24323L2.42448 3.08149H2.15359L2.06986 2.81965L1.98614 3.08149H1.71525ZM3.24067 3.08149L3.4598 3.24331L3.37607 3.50507L3.59528 3.34326L3.81442 3.50507L3.73069 3.24323L3.9499 3.08149H3.67901L3.59528 2.81965L3.51156 3.08149H3.24067ZM4.76609 3.08149L4.98522 3.24331L4.90149 3.50507L5.1207 3.34326L5.33984 3.50507L5.25611 3.24323L5.47532 3.08149H5.20436L5.1207 2.81965L5.03698 3.08149H4.76609ZM6.29143 3.08149L6.51064 3.24331L6.42691 3.50507L6.64605 3.34326L6.86526 3.50507L6.78153 3.24323L7.00066 3.08149H6.72978L6.64605 2.81965L6.56232 3.08149H6.29143ZM7.81685 3.08149L8.03599 3.24331L7.95226 3.50507L8.17147 3.34326L8.3906 3.50507L8.30687 3.24323L8.52608 3.08149H8.2552L8.17147 2.81965L8.08774 3.08149H7.81685ZM0.956871 3.74019L1.17608 3.90192L1.09235 4.16377L1.31149 4.00196L1.5307 4.16377L1.44697 3.90192L1.6661 3.74019H1.39521L1.31149 3.47835L1.22776 3.74019H0.956871ZM2.48229 3.74019L2.70142 3.90192L2.6177 4.16377L2.83691 4.00196L3.05604 4.16377L2.97239 3.90192L3.19152 3.74019H2.92063L2.83691 3.47835L2.75318 3.74019H2.48229ZM4.00771 3.74019L4.22684 3.90192L4.14312 4.16377L4.36233 4.00196L4.58146 4.16377L4.49773 3.90192L4.71694 3.74019H4.44605L4.36233 3.47835L4.2786 3.74019H4.00771ZM5.53305 3.74019L5.75226 3.90192L5.66854 4.16377L5.88767 4.00196L6.10688 4.16377L6.02315 3.90192L6.24236 3.74019H5.9714L5.88767 3.47835L5.80402 3.74019H5.53305ZM7.05847 3.74019L7.27761 3.90192L7.19396 4.16377L7.41309 4.00196L7.6323 4.16377L7.54857 3.90192L7.7677 3.74019H7.49682L7.41309 3.47835L7.32936 3.74019H7.05847ZM8.58389 3.74019L8.80303 3.90192L8.7193 4.16377L8.93851 4.00196L9.15764 4.16377L9.07392 3.90192L9.29313 3.74019H9.02224L8.93851 3.47835L8.85478 3.74019H8.58389ZM0.971209 5.04761L1.19034 5.20942L1.10661 5.47127L1.32582 5.30946L1.54496 5.47127L1.46123 5.20942L1.68044 5.04761H1.40955L1.32582 4.78585L1.2421 5.04761H0.971209ZM2.49655 5.04761L2.71576 5.20942L2.63203 5.47127L2.85117 5.30946L3.07038 5.47127L2.98665 5.20942L3.20578 5.04761H2.9349L2.85117 4.78585L2.76744 5.04761H2.49655ZM4.02197 5.04761L4.24111 5.20942L4.15745 5.47127L4.37659 5.30946L4.5958 5.47127L4.51207 5.20942L4.7312 5.04761H4.46031L4.37659 4.78585L4.29286 5.04761H4.02197ZM5.54739 5.04761L5.76653 5.20942L5.6828 5.47127L5.90201 5.30946L6.12114 5.47127L6.03749 5.20942L6.25662 5.04761H5.98573L5.90201 4.78585L5.81828 5.04761H5.54739ZM7.07274 5.04761L7.29195 5.20942L7.20822 5.47127L7.42735 5.30946L7.64656 5.47127L7.56283 5.20942L7.78204 5.04761H7.51108L7.42735 4.78585L7.3437 5.04761H7.07274ZM8.59816 5.04761L8.81729 5.20942L8.73364 5.47127L8.95277 5.30946L9.17198 5.47127L9.08825 5.20942L9.30739 5.04761H9.0365L8.95277 4.78585L8.86904 5.04761H8.59816ZM0.952577 6.37046L1.17171 6.53227L1.08798 6.79411L1.30719 6.6323L1.52633 6.79411L1.4426 6.53227L1.66181 6.37046H1.39084L1.30719 6.1087L1.22347 6.37046H0.952577ZM2.47792 6.37046L2.69713 6.53227L2.6134 6.79411L2.83254 6.6323L3.05175 6.79411L2.96802 6.53227L3.18715 6.37046H2.91626L2.83254 6.1087L2.74881 6.37046H2.47792ZM4.00334 6.37046L4.22247 6.53227L4.13882 6.79411L4.35796 6.6323L4.57717 6.79411L4.49344 6.53227L4.71257 6.37046H4.44168L4.35796 6.1087L4.27423 6.37046H4.00334ZM5.52876 6.37046L5.74789 6.53227L5.66417 6.79411L5.88338 6.6323L6.10251 6.79411L6.01886 6.53227L6.23799 6.37046H5.9671L5.88338 6.1087L5.79965 6.37046H5.52876ZM7.0541 6.37046L7.27331 6.53227L7.18959 6.79411L7.40872 6.6323L7.62793 6.79411L7.5442 6.53227L7.76341 6.37046H7.49245L7.40872 6.1087L7.32507 6.37046H7.0541ZM8.57952 6.37046L8.79866 6.53227L8.71501 6.79411L8.93414 6.6323L9.15335 6.79411L9.06962 6.53227L9.28875 6.37046H9.01787L8.93414 6.1087L8.85041 6.37046H8.57952ZM1.71977 4.38736L1.93891 4.54917L1.85526 4.81093L2.07439 4.64912L2.2936 4.81093L2.20987 4.54917L2.429 4.38736H2.15812L2.07439 4.12552L1.99066 4.38736H1.71977ZM3.24519 4.38736L3.46433 4.54917L3.3806 4.81093L3.59981 4.64912L3.81894 4.81093L3.73529 4.54917L3.95442 4.38736H3.68354L3.59981 4.12552L3.51608 4.38736H3.24519ZM4.77061 4.38736L4.98975 4.54917L4.90602 4.81093L5.12523 4.64912L5.34436 4.81093L5.26063 4.54917L5.47984 4.38736H5.20896L5.12523 4.12552L5.0415 4.38736H4.77061ZM6.29596 4.38736L6.51517 4.54917L6.43144 4.81093L6.65057 4.64912L6.86978 4.81093L6.78605 4.54917L7.00519 4.38736H6.7343L6.65057 4.12552L6.56684 4.38736H6.29596ZM7.82138 4.38736L8.04051 4.54917L7.95678 4.81093L8.17599 4.64912L8.39512 4.81093L8.31147 4.54917L8.53061 4.38736H8.25972L8.17599 4.12552L8.09226 4.38736H7.82138ZM1.71525 5.7081L1.93446 5.86991L1.85073 6.13176L2.06986 5.96994L2.28907 6.13176L2.20535 5.86991L2.42448 5.7081H2.15359L2.06986 5.44634L1.98614 5.7081H1.71525ZM3.24067 5.7081L3.4598 5.86991L3.37607 6.13176L3.59528 5.96994L3.81449 6.13176L3.73077 5.86991L3.9499 5.7081H3.67901L3.59528 5.44634L3.51156 5.7081H3.24067ZM4.76609 5.7081L4.98522 5.86991L4.90149 6.13176L5.1207 5.96994L5.33984 6.13176L5.25611 5.86991L5.47532 5.7081H5.20443L5.1207 5.44634L5.03698 5.7081H4.76609ZM6.29143 5.7081L6.51064 5.86991L6.42691 6.13176L6.64605 5.96994L6.86526 6.13176L6.78153 5.86991L7.00066 5.7081H6.72978L6.64605 5.44634L6.56232 5.7081H6.29143ZM7.81685 5.7081L8.03599 5.86991L7.95226 6.13176L8.17147 5.96994L8.3906 6.13176L8.30695 5.86991L8.52608 5.7081H8.2552L8.17147 5.44634L8.08774 5.7081H7.81685Z" fill="white"/>
</g>
<defs>
<clipPath id="clip0_104_4001">
<path d="M0.5 2.5C0.5 1.39543 1.39543 0.5 2.5 0.5H18.5C19.6046 0.5 20.5 1.39543 20.5 2.5V12.5C20.5 13.6046 19.6046 14.5 18.5 14.5H2.5C1.39543 14.5 0.5 13.6046 0.5 12.5V2.5Z" fill="white"/>
</clipPath>
</defs>
</svg>
